<?xml version="1.0" encoding="iso-8859-1"?>
<!-- Generator: Adobe Illustrator 19.2.1, SVG Export Plug-In . SVG Version: 6.00 Build 0)  -->
<svg version="1.1" id="Layer_1" xmlns="http://www.w3.org/2000/svg" xmlns:xlink="http://www.w3.org/1999/xlink" x="0px" y="0px"
	 viewBox="0 0 30 30" style="enable-background:new 0 0 30 30;" xml:space="preserve">
<g>
	<path style="fill:#8BB7F0;" d="M3.207,26.5l2.108-2.107l-0.32-0.353C2.741,21.552,1.5,18.342,1.5,15C1.5,7.556,7.556,1.5,15,1.5
		c0.461,0,0.945,0.032,1.5,0.101v3.012C15.993,4.538,15.49,4.5,15,4.5C9.21,4.5,4.5,9.21,4.5,15c0,2.516,0.918,4.955,2.584,6.868
		l0.352,0.404L9.5,20.207V26.5H3.207z"/>
	<path style="fill:#4E7AB5;" d="M15,2c0.315,0,0.643,0.016,1,0.049v1.999C15.663,4.016,15.329,4,15,4C8.935,4,4,8.935,4,15
		c0,2.636,0.961,5.192,2.707,7.196l0.704,0.808l0.758-0.758L9,21.414V26H4.414l0.918-0.918l0.673-0.673l-0.639-0.705
		C3.195,21.308,2,18.217,2,15C2,7.832,7.832,2,15,2 M15,1C7.268,1,1,7.268,1,15c0,3.612,1.377,6.895,3.625,9.375L2,27h8v-8
		l-2.539,2.539C5.935,19.787,5,17.508,5,15C5,9.477,9.477,5,15,5c0.686,0,1.353,0.076,2,0.208V1.165C16.345,1.068,15.682,1,15,1
		L15,1z"/>
</g>
<g>
	<path style="fill:#8BB7F0;" d="M15,28.5c-0.461,0-0.945-0.032-1.5-0.101v-3.012c0.507,0.075,1.01,0.113,1.5,0.113
		c5.79,0,10.5-4.71,10.5-10.5c0-2.516-0.918-4.955-2.584-6.868l-0.352-0.404L20.5,9.793V3.5h6.293l-2.108,2.107l0.32,0.353
		C27.259,8.448,28.5,11.658,28.5,15C28.5,22.444,22.444,28.5,15,28.5z"/>
	<path style="fill:#4E7AB5;" d="M25.586,4l-0.918,0.918l-0.673,0.673l0.639,0.705C26.805,8.692,28,11.783,28,15
		c0,7.168-5.832,13-13,13c-0.315,0-0.643-0.016-1-0.049v-1.999C14.337,25.984,14.671,26,15,26c6.065,0,11-4.935,11-11
		c0-2.636-0.961-5.192-2.707-7.196L22.59,6.996l-0.758,0.758L21,8.586V4H25.586 M28,3h-8v8l2.539-2.539
		C24.065,10.213,25,12.492,25,15c0,5.523-4.477,10-10,10c-0.686,0-1.353-0.076-2-0.208v4.043C13.655,28.932,14.318,29,15,29
		c7.732,0,14-6.268,14-14c0-3.612-1.377-6.895-3.625-9.375L28,3L28,3z"/>
</g>
</svg>